<?xml version="1.0" standalone="no"?>
<!DOCTYPE svg PUBLIC "-//W3C//DTD SVG 20010904//EN"
 "http://www.w3.org/TR/2001/REC-SVG-20010904/DTD/svg10.dtd">
<svg version="1.0" xmlns="http://www.w3.org/2000/svg"
 width="904.000000pt" height="904.000000pt" viewBox="0 0 904.000000 904.000000"
 preserveAspectRatio="xMidYMid meet">
<metadata>
Created by potrace 1.11, written by Peter Selinger 2001-2013
</metadata>
<g transform="translate(0.000000,904.000000) scale(0.100000,-0.100000)"
fill="#000000" stroke="none">
<path d="M2075 9026 c-51 -20 -79 -37 -115 -75 -31 -31 -64 -90 -65 -113 0 -3
-3 -10 -8 -14 -4 -4 -7 -1594 -7 -3533 l1 -3526 26 -55 c31 -65 80 -114 143
-143 l45 -21 2395 -2 c2661 -1 2444 -6 2534 66 25 20 57 59 73 90 l28 55 2
3525 c1 3436 1 3526 -18 3575 -24 64 -80 124 -144 155 l-50 25 -2405 1 c-1799
1 -2413 -1 -2435 -10z m4486 -566 c4 -117 0 -490 -6 -500 -5 -7 -4 -11 1 -8
11 7 11 -443 0 -460 -4 -7 -4 -12 1 -12 9 0 9 -449 0 -474 -4 -9 -3 -15 1 -12
9 5 8 -447 -2 -462 -4 -7 -4 -12 1 -12 10 0 9 -612 -1 -628 -4 -7 -4 -12 1
-12 9 0 9 -449 0 -474 -4 -9 -3 -15 1 -12 9 5 8 -447 -2 -462 -4 -7 -4 -12 1
-12 9 0 9 -449 0 -474 -4 -9 -3 -15 1 -12 9 5 8 -447 -2 -462 -4 -7 -4 -12 1
-12 9 0 9 -449 0 -474 -4 -9 -3 -15 1 -12 9 5 8 -447 -2 -462 -4 -7 -4 -12 1
-12 7 0 9 -271 3 -355 -1 -16 -1 -32 0 -35 6 -18 1 -400 -5 -410 -5 -7 -4 -11
1 -7 5 3 7 -14 5 -39 l-3 -44 -2054 0 c-1130 0 -2054 3 -2055 8 -5 44 -3 6340
2 6347 5 7 702 10 2058 10 1816 0 2051 -2 2052 -15z"/>
<path d="M2128 588 c-134 -17 -232 -118 -245 -252 -13 -132 68 -255 192 -297
56 -18 4737 -22 4802 -3 23 6 44 9 47 6 4 -3 6 0 6 6 0 6 9 14 21 17 31 10 89
74 112 125 22 48 33 169 17 199 -4 9 -15 32 -23 51 -22 51 -74 100 -136 128
l-53 25 -2342 1 c-1288 0 -2367 -2 -2398 -6z"/>
</g>
</svg>
