
<svg width="66px" height="113px" viewBox="0 0 66 113" version="1.1" xmlns="http://www.w3.org/2000/svg" xmlns:xlink="http://www.w3.org/1999/xlink">
    <!-- Generator: Sketch 44.1 (41455) - http://www.bohemiancoding.com/sketch -->
    <desc>Created with Sketch.</desc>
    <defs></defs>
    <g id="Page-1" stroke="none" stroke-width="1" fill="none" fill-rule="evenodd">
        <g id="LOGO" transform="translate(2.000000, 2.000000)">
            <path d="M3.07985,3.08058594 L58.5187912,3.08058594 L58.5187912,28.8893726 L58.5187912,41.5790194 L58.5187912,86.6329194 L3.07985,86.6329194 L3.07985,3.08058594 Z M1.53987941,89.7132317 L60.0587618,89.7132317 C60.9094382,89.7132317 61.5987324,89.0238545 61.5987324,88.1730755 L61.5987324,41.5790194 L61.5987324,28.8893726 L61.5987324,1.54042975 C61.5987324,0.688738881 60.9094382,0.000273562378 60.0587618,0.000273562378 L1.53987941,0.000273562378 C0.689202941,0.000273562378 -9.11764705e-05,0.688738881 -9.11764705e-05,1.54042975 L-9.11764705e-05,88.1730755 C-9.11764705e-05,89.0238545 0.689202941,89.7132317 1.53987941,89.7132317 L1.53987941,89.7132317 Z" id="Fill-1" fill="#818C9E"></path>
            <path d="M3.07985,3.08058594 L58.5187912,3.08058594 L58.5187912,28.8893726 L58.5187912,41.5790194 L58.5187912,86.6329194 L3.07985,86.6329194 L3.07985,3.08058594 L3.07985,3.08058594 Z M1.53987941,89.7132317 L60.0587618,89.7132317 C60.9094382,89.7132317 61.5987324,89.0238545 61.5987324,88.1730755 L61.5987324,41.5790194 L61.5987324,28.8893726 L61.5987324,1.54042975 C61.5987324,0.688738881 60.9094382,0.000273562378 60.0587618,0.000273562378 L1.53987941,0.000273562378 C0.689202941,0.000273562378 -9.11764705e-05,0.688738881 -9.11764705e-05,1.54042975 L-9.11764705e-05,88.1730755 C-9.11764705e-05,89.0238545 0.689202941,89.7132317 1.53987941,89.7132317 L1.53987941,89.7132317 Z" id="Stroke-3" stroke="#3ACCFF" stroke-width="4"></path>
            <path d="M0,107.137149 C0,106.285458 0.655558824,105.596993 1.46702941,105.596993 L60.1317941,105.596993 C60.9423529,105.596993 61.5988235,106.285458 61.5988235,107.137149 C61.5988235,107.987928 60.9423529,108.677305 60.1317941,108.677305 L1.46702941,108.677305 C0.655558824,108.677305 0,107.987928 0,107.137149" id="Fill-5" fill="#4990E2"></path>
            <path d="M0,107.137149 C0,106.285458 0.650489211,105.596993 1.45568448,105.596993 L59.6667788,105.596993 C60.4710694,105.596993 61.1224633,106.285458 61.1224633,107.137149 C61.1224633,107.987928 60.4710694,108.677305 59.6667788,108.677305 L1.45568448,108.677305 C0.650489211,108.677305 0,107.987928 0,107.137149 L0,107.137149 Z" id="Stroke-7" stroke="#4990E2" stroke-width="4"></path>
        </g>
    </g>
</svg>