
<svg width="168px" height="77px" viewBox="0 0 168 77" version="1.1" xmlns="http://www.w3.org/2000/svg" xmlns:xlink="http://www.w3.org/1999/xlink">
    <!-- Generator: Sketch 44.1 (41455) - http://www.bohemiancoding.com/sketch -->
    <desc>Created with Sketch.</desc>
    <defs></defs>
    <g id="Intro" stroke="none" stroke-width="1" fill="none" fill-rule="evenodd">
        <g id="Hero" transform="translate(-155.000000, -1451.000000)" fill="#000000">
            <g id="Group-3" transform="translate(100.000000, 1056.000000)">
                <g id="Labels" transform="translate(55.000000, 75.000000)">
                    <g id="stats1" transform="translate(0.000000, 320.000000)">
                        <path d="M131.762282,24.826212 C132.343996,25.5557303 132.691017,26.4768758 132.691017,27.4799083 L132.691017,49.5255343 C132.691017,50.4793562 132.375042,51.3604888 131.841276,52.0729246 C131.459763,51.6306102 131.085394,51.1655303 130.717592,50.6774881 L129.912634,51.2811437 L130.784116,50.7777293 C130.23567,49.8329599 128.826952,49.2419468 127.622942,49.9300279 C126.381858,50.6392959 126.368421,51.8720742 126.870733,53.0029314 L126.954285,53.1543353 C127.077677,53.3384298 127.202539,53.519848 127.328873,53.6985978 C125.419341,53.2476593 124,51.5540587 124,49.5255343 L124,27.4799083 C124,25.365848 125.552223,23.6088719 127.587614,23.2543157 C127.410021,23.5342744 127.242399,23.8186554 127.085236,24.107179 C126.586958,25.0219265 126.564794,26.3537163 127.839096,27.0465311 C129.093676,27.7286232 130.195966,27.1681574 130.85774,26.1226388 C131.144078,25.6702622 131.445822,25.2381836 131.762282,24.826212 Z M166.170551,39.8214821 C166.253819,40.6368524 166.312528,41.5487177 166.312528,42.5210255 C166.312528,55.5980066 157.714119,62 146.2887,62 C138.533293,62 132.248823,59.2461387 127.791452,52.5959709 C127.625949,52.2233734 127.323923,51.2586704 128.12355,50.8016908 C128.923177,50.3447112 129.720646,50.9504195 129.912634,51.2811437 C134.09761,56.8342636 139.259618,59.7158074 146.2887,59.7158074 C151.042105,59.7158074 156.691032,58.122283 160.299196,53.9982185 C160.542281,53.8227189 160.74883,53.6076882 160.902069,53.3736492 C162.947299,50.7926145 164.029229,47.7997192 164.500903,42.8480682 C164.52303,42.7234915 164.593033,42.2280814 164.585749,42.2770168 C164.609002,42.1208017 164.625812,42.0406913 164.647385,41.9758779 C164.716363,41.7686355 164.910881,41.4823716 165.74537,40.3978034 C165.896669,40.2011637 166.038221,40.0096759 166.170551,39.8214821 Z M162.20519,37.7270967 C161.79818,37.4603197 161.362169,36.8078542 161.242206,36.1865066 C160.96192,34.7347803 161.702707,34.4387994 161.100712,31.6384456 C160.498716,28.8380917 158.750512,27.2290332 157.557518,25.3375266 C157.388918,25.0746102 157.095296,24.2603106 157.557518,23.6328621 C157.780955,23.3295548 158.186495,23.2298793 158.556176,23.2117185 C160.196856,24.7702824 161.572524,26.6532122 162.587958,28.7953973 C163.131436,29.9419314 163.679006,31.6989719 163.659483,33.2652595 C163.636033,35.1465732 163.251148,36.3865555 162.20519,37.7270967 Z M128.035115,37.0571119 C129.920797,37.0571119 131.449443,35.5487569 131.449443,33.6881069 C131.449443,31.8274568 129.920797,30.3191018 128.035115,30.3191018 C126.149434,30.3191018 124.620787,31.8274568 124.620787,33.6881069 C124.620787,35.5487569 126.149434,37.0571119 128.035115,37.0571119 Z M128.035115,35.8320191 C126.835136,35.8320191 125.862361,34.8721569 125.862361,33.6881069 C125.862361,32.5040568 126.835136,31.5441946 128.035115,31.5441946 C129.235094,31.5441946 130.20787,32.5040568 130.20787,33.6881069 C130.20787,34.8721569 129.235094,35.8320191 128.035115,35.8320191 Z M164.946497,39.7861561 C163.498365,41.6682646 163.705597,41.463719 163.498365,42.75304 C163.007991,47.9009998 161.842683,50.5676309 160.058927,52.8243053 C159.894568,53.0753267 159.182426,53.6982202 158.448341,53.3273291 C157.714256,52.956438 157.763182,52.6102681 157.763182,52.1028181 C157.763182,52.0040807 157.778966,51.9089808 157.803148,51.8178288 C157.812066,51.798835 157.820961,51.7798273 157.866625,51.6815097 C158.271214,50.8052998 159.063708,49.8262573 159.668067,48.2990532 C160.321472,46.6479084 160.775781,44.4195104 160.860952,42.75304 C161.363783,39.7396791 161.502523,40.0633079 162.503112,38.9382998 C164.092216,37.1515965 164.637586,35.5942094 164.666459,33.2777492 C164.695333,30.9612891 163.572886,28.5231816 163.498365,28.3659698 C160.322121,21.6652875 153.723612,17.2690348 146.2887,17.2690348 C140.440359,17.2690348 133.991699,19.2897618 130.00622,25.5863078 C129.723132,26.0335509 129.139073,26.6092124 128.321032,26.1644582 C127.50299,25.7197041 127.896796,24.7213735 127.970096,24.5868077 C130.997797,19.0285024 138.436161,14.8276045 146.2887,15.0054426 C155.084361,15.2046398 161.370667,19.3345962 165.394941,27.0447399 C165.719809,27.6243859 166.890289,29.9304695 166.890289,33.2777492 C166.890289,36.625029 166.394629,37.9040475 164.946497,39.7861561 Z M166.751604,47.796041 C167.489344,48.1387425 168,48.8789387 168,49.7368217 C168,50.9208718 167.027225,51.880734 165.827246,51.880734 C165.712011,51.880734 165.598872,51.8718823 165.488488,51.8548304 C165.703935,51.3431342 165.900273,50.8050254 166.086625,50.2942883 C166.400969,49.4327614 166.660126,48.5502377 166.751604,47.796041 Z" id="Watch-Icon"></path>
                        <g id="iPhone" transform="translate(0.000000, 8.000000)">
                            <path d="M0.245720617,22.2573838 L0.268518519,22.2574525 C0.268518519,22.2574525 0.30235753,21.9956245 0.314166994,21.70644 L0.314166994,18.5861389 C0.314166994,18.2433723 0.268518519,17.8808173 0.268518519,17.8808173 L0.268518519,17.033843 C0.268518519,17.033843 0.30235753,16.772015 0.314166994,16.4828305 L0.314166994,13.3625294 C0.314166994,13.0197627 0.268518519,12.6572077 0.268518519,12.6572077 L0.251562144,12.6572077 C0.239587786,12.6036696 0.22203329,12.5622551 0.201388889,12.5404171 L0.201388889,9.93810027 C0.209060915,9.91961679 0.216306204,9.89565824 0.222996946,9.86809344 C0.268518518,9.43860204 0.254478161,9.63343196 0.244559088,9.75591406 C0.259501842,9.65891107 0.268518519,9.55059743 0.268518519,9.47616345 L0.268518519,9.3171097 C0.268518518,9.18415353 0.268518517,8.32623949 0.268518519,8.20588922 L0.268518519,7.86889898 L0.26602335,7.86889898 C0.264466547,7.84836566 0.262209185,7.82235803 0.259330446,7.79303189 C0.249393027,7.59109252 0.234953704,7.50056754 0.234953704,7.50056754 L0.219345509,7.50056754 C0.213694509,7.47165302 0.207685417,7.44559321 0.201388889,7.4243117 L0.201388889,5.19031059 L0.201388889,5.35754824 C0.201388889,5.35754824 0.481265033,5.37818186 0.671296296,5.25709421 L0.671296296,4.45346198 C0.502243346,4.50175117 0.27940453,4.49199883 0.217783223,4.48810859 C0.402154545,1.55751783 2.1379241,0 5.23838619,0 L23.8287434,0 C26.9187188,0 28.6532176,1.54699958 28.8474224,4.45841908 C28.6513637,4.50864591 28.3958333,4.48694665 28.3958333,4.48694665 L28.3958333,5.35754824 C28.3958333,5.35754824 28.6757095,5.37818186 28.8657407,5.25709421 L28.8657407,5.14008358 L28.8657407,12.339509 C28.8450963,12.361347 28.8275418,12.4027615 28.8155675,12.4562997 L28.7810993,12.4562997 C28.7810993,12.4562997 28.7314815,12.8168974 28.7314815,13.1578137 L28.7314815,16.2612698 C28.7443178,16.5488931 28.7810993,16.8093076 28.7810993,16.8093076 L28.8155595,16.8092125 L28.8155675,16.8093076 C28.8275418,16.8628458 28.8450963,16.9042603 28.8657407,16.9260982 L28.8657407,53.7929471 L28.8657407,53.6089671 C28.5972222,53.6404898 28.3958333,53.5754824 28.3958333,53.5754824 L28.3958333,54.446084 C28.3958333,54.446084 28.5900012,54.502518 28.8512336,54.4808469 C28.6771731,57.4308488 26.9402727,59 23.8287434,59 L16.2541251,59 C16.183955,58.9627651 16.0570662,58.9368616 15.9097222,58.933421 L13.224537,58.9330306 C13.2134593,58.9331623 13.2022658,58.9330306 13.1909722,58.9330306 C13.0294639,58.9330306 12.8884502,58.9599656 12.8130045,59 L6.11306068,59 C6.03181148,58.9599656 5.8799506,58.9330306 5.70601852,58.9330306 C5.53208644,58.9330306 5.38022556,58.9599656 5.29897636,59 L5.23838619,59 C2.11583618,59 0.37766992,57.4197135 0.214105294,54.449449 C0.262266201,54.4615343 0.442388771,54.5009218 0.671296296,54.4795687 L0.671296296,53.6089671 C0.402777778,53.6404898 0.201388889,53.5754824 0.201388889,53.5754824 L0.201388889,53.7762047 L0.201388889,22.3506158 C0.218893726,22.3320989 0.234177011,22.2995071 0.245720617,22.2573838 Z M12.2847222,3.71679909 C12.2847222,3.82775755 12.3745652,3.91770715 12.486716,3.91770715 L16.5804136,3.91770715 C16.6919717,3.91770715 16.7824074,3.82753177 16.7824074,3.71679909 C16.7824074,3.60584063 16.6925644,3.51589103 16.5804136,3.51589103 L12.486716,3.51589103 C12.3751579,3.51589103 12.2847222,3.60606641 12.2847222,3.71679909 Z M14.5335648,2.1430193 C14.7189382,2.1430193 14.869213,1.99310329 14.869213,1.80817253 C14.869213,1.62324177 14.7189382,1.47332577 14.5335648,1.47332577 C14.3481915,1.47332577 14.1979167,1.62324177 14.1979167,1.80817253 C14.1979167,1.99310329 14.3481915,2.1430193 14.5335648,2.1430193 Z M16.7824074,55.1827469 C16.7824074,53.9252176 15.7605389,52.9057889 14.5,52.9057889 C13.2394611,52.9057889 12.2175926,53.9252176 12.2175926,55.1827469 C12.2175926,56.4402761 13.2394611,57.4597049 14.5,57.4597049 C15.7605389,57.4597049 16.7824074,56.4402761 16.7824074,55.1827469 Z M9.93518519,4.18558456 C10.1947079,4.18558456 10.4050926,3.97570216 10.4050926,3.71679909 C10.4050926,3.45789603 10.1947079,3.24801362 9.93518519,3.24801362 C9.67566249,3.24801362 9.46527778,3.45789603 9.46527778,3.71679909 C9.46527778,3.97570216 9.67566249,4.18558456 9.93518519,4.18558456 Z M1.94675926,7.16572077 L1.94675926,51.8342792 L27.1203704,51.8342792 L27.0861352,7.16572077 L1.94675926,7.16572077 Z" id="Combined-Shape"></path>
                        </g>
                        <g id="iPad" transform="translate(49.000000, 0.000000)" fill-rule="nonzero">
                            <path d="M51.7063433,0 C53.4910569,0 54.9378531,1.43190945 54.9378531,3.19864228 L54.9378531,73.7706069 C54.9378531,75.5371683 53.4913619,76.9692492 51.7063433,76.9692492 L3.2315098,76.9692492 C1.44679622,76.9692492 1.13686838e-13,75.5373398 1.13686838e-13,73.7706069 L1.13686838e-13,3.19864228 C1.13686838e-13,1.43208093 1.4464912,0 3.2315098,0 L51.7063433,0 Z M27.4689266,75.4009585 C28.4299644,75.4009585 29.2090395,74.6299728 29.2090395,73.6789137 C29.2090395,72.7278547 28.4299644,71.956869 27.4689266,71.956869 C26.5078887,71.956869 25.7288136,72.7278547 25.7288136,73.6789137 C25.7288136,74.6299728 26.5078887,75.4009585 27.4689266,75.4009585 Z M27.4067797,4.05910543 C27.6470391,4.05910543 27.8418079,3.86635901 27.8418079,3.62859425 C27.8418079,3.39082949 27.6470391,3.19808307 27.4067797,3.19808307 C27.1665202,3.19808307 26.9717514,3.39082949 26.9717514,3.62859425 C26.9717514,3.86635901 27.1665202,4.05910543 27.4067797,4.05910543 Z M26.0706215,3.87460064 C26.1907512,3.87460064 26.2881356,3.77822743 26.2881356,3.65934505 C26.2881356,3.54046267 26.1907512,3.44408946 26.0706215,3.44408946 C25.9504917,3.44408946 25.8531073,3.54046267 25.8531073,3.65934505 C25.8531073,3.77822743 25.9504917,3.87460064 26.0706215,3.87460064 Z M3.60451977,7.01118211 L3.60451977,69.9888179 L51.3333333,69.9888179 L51.3333333,7.01118211 L3.60451977,7.01118211 Z" id="Combined-Shape"></path>
                        </g>
                    </g>
                </g>
            </g>
        </g>
    </g>
</svg>