
<svg width="42px" height="42px" viewBox="0 0 42 42" version="1.1" xmlns="http://www.w3.org/2000/svg" xmlns:xlink="http://www.w3.org/1999/xlink">
    <!-- Generator: Sketch 44.1 (41455) - http://www.bohemiancoding.com/sketch -->
    <desc>Created with Sketch.</desc>
    <defs></defs>
    <g id="Page-1" stroke="none" stroke-width="1" fill="none" fill-rule="evenodd">
        <g id="Apple-iPhone-7-Landing-Page" transform="translate(-637.000000, -3881.000000)">
            <g id="An-entirely-new-camera-enters-the-picture." transform="translate(0.000000, 3010.000000)">
                <g id="Content">
                    <g transform="translate(249.000000, 120.000000)" id="Features">
                        <g transform="translate(230.000000, 748.000000)">
                            <g id="Optical-image-stabilisation" transform="translate(124.000000, 4.000000)">
                                <g id="Image-stabilisation-icon" transform="translate(35.000000, 0.000000)">
                                    <path d="M5,8.9992748 C5,6.79053632 6.78679466,5 8.9992748,5 L31.0007252,5 C33.2094637,5 35,6.78679466 35,8.9992748 L35,31.0007252 C35,33.2094637 33.2132053,35 31.0007252,35 L8.9992748,35 C6.79053632,35 5,33.2132053 5,31.0007252 L5,8.9992748 Z M20,30 C25.5228475,30 30,25.5228475 30,20 C30,14.4771525 25.5228475,10 20,10 C14.4771525,10 10,14.4771525 10,20 C10,25.5228475 14.4771525,30 20,30 Z" id="Combined-Shape" fill="#000000"></path>
                                    <path d="M0.0551952575,8 C0.517684609,3.82921474 3.83373296,0.517562107 8,0.055240876 M0.0551952575,8 L0.0551952575,8 M0.223836585,33 C1.06271668,36.6875085 4.16891705,39.5199842 8,39.9448047 M39.9447591,8 C39.4824379,3.83373296 36.1707853,0.517684609 32,0.0551952575 M39.9447591,8 L39.9447591,8 L39.9447591,8 L39.9447591,8 M39.7763033,33 C38.9370284,36.6908615 35.8272555,39.5200572 32,39.9447591 M39.7763033,33 L39.7763033,33 L39.7763033,33 L39.7763033,33 L39.7763033,33 L39.7763033,33" id="Combined-Shape" stroke="#000000" stroke-width="2"></path>
                                </g>
                            </g>
                        </g>
                    </g>
                </g>
            </g>
        </g>
    </g>
</svg>